<?xml version="1.0" encoding="iso-8859-1"?>
<!-- Generator: Adobe Illustrator 19.0.0, SVG Export Plug-In . SVG Version: 6.00 Build 0)  -->
<svg version="1.1" id="Layer_1" xmlns="http://www.w3.org/2000/svg" xmlns:xlink="http://www.w3.org/1999/xlink" x="0px" y="0px"
	 viewBox="0 0 512 512" style="enable-background:new 0 0 512 512;" xml:space="preserve">
<g>
	<g>
		<g>
			<path d="M491.713,190.306h-74.867v-77.698c0-9.64-7.815-17.455-17.455-17.455h-74.865V17.455c0-9.64-7.815-17.455-17.455-17.455
				H20.286C10.647,0,2.832,7.815,2.832,17.455V304.24c0,9.64,7.815,17.455,17.455,17.455h74.867v77.698
				c0,9.64,7.815,17.455,17.455,17.455h74.866v77.698c0,9.64,7.815,17.455,17.455,17.455h286.785c9.64,0,17.455-7.815,17.455-17.455
				V207.76C509.167,198.121,501.353,190.306,491.713,190.306z M95.153,286.785H37.741V34.909h251.876v60.244H276.23V64.812
				c0-9.64-7.815-17.455-17.455-17.455H68.581c-9.64,0-17.455,7.815-17.455,17.455v156.232c0,9.64,7.815,17.455,17.455,17.455
				h26.573V286.785z M112.607,95.153c-9.64,0-17.455,7.815-17.455,17.455v90.982h-9.118V82.267H241.32v12.886H112.607z
				 M187.473,381.939h-57.411c0-9.128,0-230.954,0-251.876c10.999,0,241.344,0,251.875,0v60.243h-13.389v-30.343
				c0-9.64-7.815-17.455-17.455-17.455H160.898c-9.64,0-17.455,7.815-17.455,17.455v156.232c0,9.64,7.815,17.455,17.455,17.455
				h26.575V381.939z M204.927,190.306c-9.64,0-17.455,7.815-17.455,17.455v90.98h-9.121V177.417h155.286v12.888H204.927z
				 M474.258,477.091H222.382c0-9.13,0-230.982,0-251.876c16.6,0,243.575,0,251.876,0V477.091z"/>
			<path d="M253.216,428.799h190.195c9.64,0,17.455-7.815,17.455-17.455V255.112c0-9.64-7.815-17.455-17.455-17.455H253.216
				c-9.64,0-17.455,7.815-17.455,17.455v156.232C235.761,420.984,243.576,428.799,253.216,428.799z M270.671,272.567h155.286V393.89
				H270.671V272.567z"/>
		</g>
	</g>
</g>
<g>
</g>
<g>
</g>
<g>
</g>
<g>
</g>
<g>
</g>
<g>
</g>
<g>
</g>
<g>
</g>
<g>
</g>
<g>
</g>
<g>
</g>
<g>
</g>
<g>
</g>
<g>
</g>
<g>
</g>
</svg>
